<svg xmlns="http://www.w3.org/2000/svg" width="2933" height="1167" viewBox="0 0 2933 1167"><defs><style>.cls-1{fill-rule:evenodd}</style></defs><path data-name="ANP 2017 Logo" class="cls-1" d="M552.773,32.482c92.65,0,141.612,54.84,141.612,158.422,0,100.5-49.531,158.275-136.078,158.275H421.679V32.482H552.773ZM409.156,8.082c-8.134,0-14.7,6.1-14.749,13.616V358.677c0,8.172,6.408,14.984,14.13,14.984H553.726C660.6,373.661,721.807,307,721.807,190.9c0-151.1-89.224-182.822-164-182.822H409.156Zm2352.234,24.4c92.65,0,141.62,54.84,141.62,158.422,0,100.5-49.53,158.275-135.97,158.275H2630.52V32.482h130.87Zm-143.57-24.4A14.542,14.542,0,0,0,2602.99,21.7V358.677c0,8.172,6.6,14.984,14.27,14.984h145.13C2869.2,373.661,2933,307,2933,190.9c0-151.1-91.68-182.822-166.58-182.822h-148.6ZM2336.43,172.177a12.574,12.574,0,0,0,0,25.148h106.94a12.575,12.575,0,0,0,0-25.148H2336.43ZM2287.35,8.082a14.6,14.6,0,0,0-14.55,14.332l0.05,336.312c-0.05,8.6,6.25,14.935,14.03,14.935h254.36a12.281,12.281,0,0,0,12.22-12.281c0-6.577-5.82-12.2-12.61-12.2H2300.19V32.482h237.75a12.411,12.411,0,0,0,12.42-12.208c0-6.617-5.85-12.192-12.63-12.192H2287.35Zm-522.1-.138a13.344,13.344,0,0,0-13.19,13.283V334.66c-5.08-6.284-264.15-322.183-264.15-322.183a13.688,13.688,0,0,0-9.42-4.395h-13.62c-6.99,0-12.87,5.534-12.87,12.053V359.9c0,7.48,6,13.763,13.18,13.763h1.04a13.392,13.392,0,0,0,13.26-13.47V47.132c5.23,6.47,253.84,309.56,253.84,309.56,0.43,0.61,10.26,12.387,10.26,12.387a13.654,13.654,0,0,0,9.27,4.492h13.75c6.9,0,12.79-5.721,12.79-12.249V21.747c0-7.805-5.74-13.8-12.97-13.8h-1.17ZM335.615,467.6a13.334,13.334,0,0,0-13.19,13.282V794.315c-5.086-6.283-264.15-322.183-264.15-322.183a13.7,13.7,0,0,0-9.423-4.395H35.234c-6.99,0-12.873,5.534-12.873,12.054V819.553c0,7.48,6,13.763,13.182,13.763h1.042a13.392,13.392,0,0,0,13.259-13.47V506.787c5.224,6.47,253.841,309.56,253.841,309.56,0.423,0.61,10.257,12.387,10.257,12.387a13.636,13.636,0,0,0,9.264,4.493h13.756c6.9,0,12.784-5.722,12.784-12.241V481.4c0-7.805-5.741-13.8-12.975-13.8h-1.156Zm2564.415,0a13.337,13.337,0,0,0-13.19,13.282V794.315c-5.08-6.283-264.15-322.183-264.15-322.183a13.7,13.7,0,0,0-9.43-4.395h-13.61c-6.99,0-12.87,5.534-12.87,12.054V819.553c0,7.48,6,13.763,13.18,13.763H2601a13.392,13.392,0,0,0,13.26-13.47V506.787c5.22,6.47,253.84,309.56,253.84,309.56,0.43,0.61,10.26,12.387,10.26,12.387a13.616,13.616,0,0,0,9.27,4.493h13.75c6.9,0,12.78-5.722,12.78-12.241V481.4c0-7.805-5.74-13.8-12.97-13.8h-1.16ZM1862.6,190.774c0,96.485,70.17,166.577,166.9,166.577,71.89,0,127.72-37.439,144.73-91.4,2.09-6.625,6.16-9.979,13.21-9.979h6.24c6.36,0,9.49,4.851,7.96,11.305-15.73,66.332-83.28,114.261-172.14,114.261-127.62,0-194.39-95.565-194.39-190.448S1901.88,0,2029.5,0c88.86,0,156.41,47.93,172.14,114.261,1.53,6.454-1.6,11.305-7.96,11.305h-6.24c-7.05,0-11.12-3.354-13.21-9.978-17.01-53.953-72.84-91.4-144.73-91.4-96.73,0-166.9,70.091-166.9,166.585m290.28,459.671c0-96.485,69.98-167.407,166.7-167.407,96.74,0,166.72,70.922,166.72,167.407S2416.32,817.86,2319.58,817.86c-96.72,0-166.7-70.921-166.7-167.415m166.7,190.912c127.63,0,194.44-94.378,194.44-190.912s-66.81-190.912-194.44-190.912c-127.61,0-194.43,94.386-194.43,190.912s66.82,190.912,194.43,190.912M609.408,840.193c107.375,0,170.292-66.893,170.292-175.431V480.881A13.3,13.3,0,0,0,766.571,467.6H765.4c-7.234,0-13,6.006-13,13.8V664.688c0,87.9-50.219,151.138-143,151.138S466.417,752.587,466.417,664.688V481.4c0-7.8-5.769-13.8-13-13.8H452.25a13.3,13.3,0,0,0-13.133,13.282V664.762c0,108.538,62.921,175.431,170.291,175.431M1595.84,480.881A13.288,13.288,0,0,0,1582.7,467.6h-1.15c-7.24,0-13,6-13,13.8V819.838c0,7.8,5.76,13.8,13,13.8h1.15a13.3,13.3,0,0,0,13.14-13.291V480.881Zm455.18,0a13.288,13.288,0,0,0-13.14-13.282h-1.15c-7.24,0-13.01,6-13.01,13.8V819.838c0,7.8,5.77,13.8,13.01,13.8h1.15a13.3,13.3,0,0,0,13.14-13.291V480.881Zm-922.18-13.3H849.578a11.834,11.834,0,0,0-11.832,11.695v1.034c0,6.454,5.343,11.589,12.292,11.589h125.48V819.838c0,7.805,5.765,13.8,13,13.8h1.16a13.292,13.292,0,0,0,13.137-13.283V491.9h125.57c6.94,0,12.29-5.135,12.29-11.589v-1.034a11.838,11.838,0,0,0-11.83-11.695m820.23,0H1669.81a11.84,11.84,0,0,0-11.84,11.695v1.034c0,6.454,5.35,11.589,12.3,11.589h125.47V819.838c0,7.805,5.77,13.8,13.01,13.8h1.15a13.289,13.289,0,0,0,13.14-13.283V491.9h125.57c6.95,0,12.29-5.135,12.29-11.589v-1.034a11.831,11.831,0,0,0-11.83-11.695M1471,817.193a23.3,23.3,0,0,0-2.69-6.56L1377.6,665.9c55.53-1.864,89.23-37.61,89.23-99.228,0-82.39-50.77-99.2-91.54-99.2l-161.78.049a14.6,14.6,0,0,0-14.55,14.324l-0.12,338c0,7.8,5.75,13.8,12.99,13.8h1.16a13.278,13.278,0,0,0,13.13-13.274L1226,491.9l146.65-.122c43.8,0,66.95,25.922,66.95,74.885,0,47.515-23.42,74.576-64.33,74.576l-107.58-.179a12.575,12.575,0,0,0,0,25.149l77.57-.1L1444.81,825.8c3.33,5.477,8.85,8.163,14.12,7.5A13.777,13.777,0,0,0,1471,817.193M1270.86,1077.85h-59.3a9.235,9.235,0,1,0,0,18.47h59.3a9.236,9.236,0,1,0,0-18.47m-17.35-123.7,0.05-.016a10.041,10.041,0,0,0-9.14-5.8h-6.35a10.176,10.176,0,0,0-9.08,5.8l0.04,0.016c-1.49,3.043-11.53,24.9-89.22,194.1a10.692,10.692,0,0,0,.33,10.49,10.308,10.308,0,0,0,8.64,4.74,10.043,10.043,0,0,0,9.05-5.9c0.68-1.53,71.08-155.97,83.45-183.094,12.38,27.144,82.86,181.754,83.5,183.184a10.009,10.009,0,0,0,9.01,5.81,10.29,10.29,0,0,0,8.63-4.74,10.708,10.708,0,0,0,.34-10.47c-77.7-169.219-87.74-191.072-89.25-194.115m669.25,88.765a9.275,9.275,0,0,0,0,18.55h57.49a9.275,9.275,0,0,0,0-18.55h-57.49Zm110.88,102.18H1898.36V966.3h133.61a9.13,9.13,0,0,0,9.18-9.058,9.312,9.312,0,0,0-9.32-9.059H1888.94a10.488,10.488,0,0,0-10.43,10.279l0.04,194.132a10.69,10.69,0,0,0,3.05,7.74,9.858,9.858,0,0,0,7.06,2.93h145.2a9.1,9.1,0,0,0,9.08-9.11,9.307,9.307,0,0,0-9.3-9.06M538.94,943.532c-34.868,0-64.349,12.053-85.233,34.874-18.72,20.437-29.03,47.914-29.03,77.364s10.31,56.93,29.03,77.35c20.884,22.83,50.365,34.88,85.233,34.88s64.361-12.05,85.241-34.88c18.724-20.42,29.026-47.91,29.026-77.35s-10.3-56.927-29.026-77.364c-20.88-22.821-50.361-34.874-85.241-34.874m94.225,112.238c0,54.83-39.629,94.63-94.225,94.63s-94.213-39.8-94.213-94.63,39.629-94.626,94.213-94.626,94.225,39.8,94.225,94.626m-295.2,10.9c31.389-2.5,50-24.36,50-59.12,0-51.574-34.371-59.273-54.861-59.273H239.7a10.5,10.5,0,0,0-10.416,10.312l-0.073,194.851a9.653,9.653,0,0,0,9.521,9.98H239.4a9.649,9.649,0,0,0,9.6-9.69l-0.077-187.344h82.641c24.3,0,36.63,13.852,36.63,41.164,0,26.47-12.475,41.05-35.112,41.05l-62.1-.12a9.285,9.285,0,0,0,0,18.57l43.657-.06L371.5,1158.2a10.55,10.55,0,0,0,8.95,5.36,8.079,8.079,0,0,0,1.193-.08,9.975,9.975,0,0,0,8.7-11.62v-0.01a14.776,14.776,0,0,0-1.844-4.52Zm715.6,0c31.39-2.5,49.99-24.36,49.99-59.12,0-51.574-34.37-59.273-54.86-59.273h-93.4a10.5,10.5,0,0,0-10.416,10.312L944.8,1153.44a9.652,9.652,0,0,0,9.52,9.98h0.668a9.649,9.649,0,0,0,9.6-9.69l-0.078-187.344h82.644c24.3,0,36.63,13.852,36.63,41.164,0,26.47-12.48,41.05-35.11,41.05l-62.108-.12a9.285,9.285,0,0,0,0,18.57l43.658-.06,56.87,91.21a10.541,10.541,0,0,0,8.95,5.36,8.021,8.021,0,0,0,1.19-.08,10.05,10.05,0,0,0,6.85-3.92,10.176,10.176,0,0,0,1.85-7.7v-0.01a14.763,14.763,0,0,0-1.85-4.52ZM124.809,948.277H31.41a10.338,10.338,0,0,0-10.416,10.23L20.921,1153.35a9.662,9.662,0,0,0,9.525,9.99h0.663a9.655,9.655,0,0,0,9.6-9.69L40.633,966.386h82.65c24.3,0,36.621,13.827,36.621,41.094,0,26.37-12.474,40.9-35.111,40.9l-62.1.03a9.27,9.27,0,0,0,0,18.54l60.838-.07c35.153,0,56.143-22.21,56.143-59.4,0-22.123-7.124-59.2-54.861-59.2M1816.22,948.2h-6.33a8.675,8.675,0,0,0-6.9,3.272l-74.97,90.673-74.66-90.705a8.635,8.635,0,0,0-6.98-3.24h-6.48c-5.81,0-9.46,3.435-9.46,8.977V1153.31a9.93,9.93,0,0,0,9.63,9.96h0.61a9.748,9.748,0,0,0,9.67-9.79V978.39l69.52,84.38a8.422,8.422,0,0,0,6.97,3.23h2.3a8.618,8.618,0,0,0,7-3.27l69.63-84.348v175.1a9.742,9.742,0,0,0,9.67,9.79h0.61a9.935,9.935,0,0,0,9.62-9.96V957.172c0-5.542-3.65-8.977-9.45-8.977m-249.28,0h-6.33a8.658,8.658,0,0,0-6.89,3.272l-74.98,90.673-74.66-90.705a8.63,8.63,0,0,0-6.97-3.24h-6.5c-5.8,0-9.45,3.435-9.45,8.977V1153.31a9.923,9.923,0,0,0,9.63,9.96h0.61a9.74,9.74,0,0,0,9.66-9.79V978.39l69.53,84.38a8.409,8.409,0,0,0,6.97,3.23h2.29a8.6,8.6,0,0,0,7-3.27l69.64-84.348v175.1a9.742,9.742,0,0,0,9.67,9.79h0.6a9.937,9.937,0,0,0,9.63-9.96V957.172c0-5.542-3.65-8.977-9.45-8.977M896.819,1061.72H795.938a9.235,9.235,0,1,0,0,18.47H886.13c-7.091,42.39-40.572,69.62-85.924,69.62-65.163,0-94.335-47.24-94.335-94.04,0-54.51,39.681-94.072,94.335-94.072,38.786,0,67.868,17.254,79.789,47.362,1.8,4.54,5.224,7.03,9.659,7.03h3.707a6.556,6.556,0,0,0,5.276-2.6,7.512,7.512,0,0,0,1.05-6.69c-4.333-14.834-24.314-63.252-99.481-63.252-75,0-114.239,56.462-114.239,112.222,0,67.1,45.91,112.17,114.239,112.17,59.226,0,104.929-41.47,106.312-96.47a9.461,9.461,0,0,0-2.506-7.03,9.74,9.74,0,0,0-7.193-2.72M119.609,232.452a12.506,12.506,0,1,0,0,25.011H226.43a12.507,12.507,0,1,0,0-25.011H119.609ZM173.131,41.459S320.684,365.107,320.9,365.669a13.881,13.881,0,0,0,12.474,8.13c9.525,0,17.89-9.775,12.365-21.413,0,0-154.326-336.084-154.493-336.271A14.022,14.022,0,0,0,178.579,8.09h-10.9a14.021,14.021,0,0,0-12.666,8.025C154.847,16.3.521,352.386,0.521,352.386-5,364.024,3.365,373.8,12.89,373.8a13.869,13.869,0,0,0,12.47-8.13c0.22-.562,147.771-324.21,147.771-324.21M1174.91,232.452a12.506,12.506,0,1,0,0,25.011h106.82a12.506,12.506,0,1,0,0-25.011H1174.91Zm53.52-190.993s147.55,323.648,147.77,324.21a13.876,13.876,0,0,0,12.47,8.13c9.53,0,17.89-9.775,12.37-21.413,0,0-154.33-336.084-154.5-336.271a14,14,0,0,0-12.66-8.025h-10.9a14,14,0,0,0-12.66,8.025c-0.17.187-154.5,336.271-154.5,336.271-5.52,11.638,2.84,21.413,12.37,21.413a13.865,13.865,0,0,0,12.47-8.13c0.22-.562,147.77-324.21,147.77-324.21M914.07,340.43S766.518,16.783,766.3,16.212A13.884,13.884,0,0,0,753.828,8.09c-9.525,0-17.89,9.775-12.365,21.405,0,0,154.326,336.084,154.493,336.279a14.039,14.039,0,0,0,12.666,8.025h10.9a14.038,14.038,0,0,0,12.666-8.025c0.167-.195,154.5-336.279,154.5-336.279,5.52-11.63-2.84-21.405-12.37-21.405a13.87,13.87,0,0,0-12.47,8.122c-0.22.57-147.77,324.218-147.77,324.218M2128.9,1015.64h-5.11V952.9h-20v-4.573h45.25V952.9H2128.9v62.741Zm84.73-55.521-20.44,46.081h-5.09l-20.82-46.081v55.521h-5.09V948.326h5.09l23.48,51.934,22.87-51.934h5.08v67.314h-5.08V960.119ZM552.773,32.482c92.65,0,141.612,54.84,141.612,158.422,0,100.5-49.531,158.275-136.078,158.275H421.679V32.482H552.773ZM409.156,8.082c-8.134,0-14.7,6.1-14.749,13.616V358.677c0,8.172,6.408,14.984,14.13,14.984H553.726C660.6,373.661,721.807,307,721.807,190.9c0-151.1-89.224-182.822-164-182.822H409.156Zm2352.234,24.4c92.65,0,141.62,54.84,141.62,158.422,0,100.5-49.53,158.275-135.97,158.275H2630.52V32.482h130.87Zm-143.57-24.4A14.542,14.542,0,0,0,2602.99,21.7V358.677c0,8.172,6.6,14.984,14.27,14.984h145.13C2869.2,373.661,2933,307,2933,190.9c0-151.1-91.68-182.822-166.58-182.822h-148.6ZM2336.43,172.177a12.574,12.574,0,0,0,0,25.148h106.94a12.575,12.575,0,0,0,0-25.148H2336.43ZM2287.35,8.082a14.6,14.6,0,0,0-14.55,14.332l0.05,336.312c-0.05,8.6,6.25,14.935,14.03,14.935h254.36a12.281,12.281,0,0,0,12.22-12.281c0-6.577-5.82-12.2-12.61-12.2H2300.19V32.482h237.75a12.411,12.411,0,0,0,12.42-12.208c0-6.617-5.85-12.192-12.63-12.192H2287.35Zm-522.1-.138a13.344,13.344,0,0,0-13.19,13.283V334.66c-5.08-6.284-264.15-322.183-264.15-322.183a13.688,13.688,0,0,0-9.42-4.395h-13.62c-6.99,0-12.87,5.534-12.87,12.053V359.9c0,7.48,6,13.763,13.18,13.763h1.04a13.392,13.392,0,0,0,13.26-13.47V47.132c5.23,6.47,253.84,309.56,253.84,309.56,0.43,0.61,10.26,12.387,10.26,12.387a13.654,13.654,0,0,0,9.27,4.492h13.75c6.9,0,12.79-5.721,12.79-12.249V21.747c0-7.805-5.74-13.8-12.97-13.8h-1.17ZM335.615,467.6a13.334,13.334,0,0,0-13.19,13.282V794.315c-5.086-6.283-264.15-322.183-264.15-322.183a13.7,13.7,0,0,0-9.423-4.395H35.234c-6.99,0-12.873,5.534-12.873,12.054V819.553c0,7.48,6,13.763,13.182,13.763h1.042a13.392,13.392,0,0,0,13.259-13.47V506.787c5.224,6.47,253.841,309.56,253.841,309.56,0.423,0.61,10.257,12.387,10.257,12.387a13.636,13.636,0,0,0,9.264,4.493h13.756c6.9,0,12.784-5.722,12.784-12.241V481.4c0-7.805-5.741-13.8-12.975-13.8h-1.156Zm2564.415,0a13.337,13.337,0,0,0-13.19,13.282V794.315c-5.08-6.283-264.15-322.183-264.15-322.183a13.7,13.7,0,0,0-9.43-4.395h-13.61c-6.99,0-12.87,5.534-12.87,12.054V819.553c0,7.48,6,13.763,13.18,13.763H2601a13.392,13.392,0,0,0,13.26-13.47V506.787c5.22,6.47,253.84,309.56,253.84,309.56,0.43,0.61,10.26,12.387,10.26,12.387a13.616,13.616,0,0,0,9.27,4.493h13.75c6.9,0,12.78-5.722,12.78-12.241V481.4c0-7.805-5.74-13.8-12.97-13.8h-1.16ZM1862.6,190.774c0,96.485,70.17,166.577,166.9,166.577,71.89,0,127.72-37.439,144.73-91.4,2.09-6.625,6.16-9.979,13.21-9.979h6.24c6.36,0,9.49,4.851,7.96,11.305-15.73,66.332-83.28,114.261-172.14,114.261-127.62,0-194.39-95.565-194.39-190.448S1901.88,0,2029.5,0c88.86,0,156.41,47.93,172.14,114.261,1.53,6.454-1.6,11.305-7.96,11.305h-6.24c-7.05,0-11.12-3.354-13.21-9.978-17.01-53.953-72.84-91.4-144.73-91.4-96.73,0-166.9,70.091-166.9,166.585m290.28,459.671c0-96.485,69.98-167.407,166.7-167.407,96.74,0,166.72,70.922,166.72,167.407S2416.32,817.86,2319.58,817.86c-96.72,0-166.7-70.921-166.7-167.415m166.7,190.912c127.63,0,194.44-94.378,194.44-190.912s-66.81-190.912-194.44-190.912c-127.61,0-194.43,94.386-194.43,190.912s66.82,190.912,194.43,190.912M609.408,840.193c107.375,0,170.292-66.893,170.292-175.431V480.881A13.3,13.3,0,0,0,766.571,467.6H765.4c-7.234,0-13,6.006-13,13.8V664.688c0,87.9-50.219,151.138-143,151.138S466.417,752.587,466.417,664.688V481.4c0-7.8-5.769-13.8-13-13.8H452.25a13.3,13.3,0,0,0-13.133,13.282V664.762c0,108.538,62.921,175.431,170.291,175.431M1595.84,480.881A13.288,13.288,0,0,0,1582.7,467.6h-1.15c-7.24,0-13,6-13,13.8V819.838c0,7.8,5.76,13.8,13,13.8h1.15a13.3,13.3,0,0,0,13.14-13.291V480.881Zm455.18,0a13.288,13.288,0,0,0-13.14-13.282h-1.15c-7.24,0-13.01,6-13.01,13.8V819.838c0,7.8,5.77,13.8,13.01,13.8h1.15a13.3,13.3,0,0,0,13.14-13.291V480.881Zm-922.18-13.3H849.578a11.834,11.834,0,0,0-11.832,11.695v1.034c0,6.454,5.343,11.589,12.292,11.589h125.48V819.838c0,7.805,5.765,13.8,13,13.8h1.16a13.292,13.292,0,0,0,13.137-13.283V491.9h125.57c6.94,0,12.29-5.135,12.29-11.589v-1.034a11.838,11.838,0,0,0-11.83-11.695m820.23,0H1669.81a11.84,11.84,0,0,0-11.84,11.695v1.034c0,6.454,5.35,11.589,12.3,11.589h125.47V819.838c0,7.805,5.77,13.8,13.01,13.8h1.15a13.289,13.289,0,0,0,13.14-13.283V491.9h125.57c6.95,0,12.29-5.135,12.29-11.589v-1.034a11.831,11.831,0,0,0-11.83-11.695M1471,817.193a23.3,23.3,0,0,0-2.69-6.56L1377.6,665.9c55.53-1.864,89.23-37.61,89.23-99.228,0-82.39-50.77-99.2-91.54-99.2l-161.78.049a14.6,14.6,0,0,0-14.55,14.324l-0.12,338c0,7.8,5.75,13.8,12.99,13.8h1.16a13.278,13.278,0,0,0,13.13-13.274L1226,491.9l146.65-.122c43.8,0,66.95,25.922,66.95,74.885,0,47.515-23.42,74.576-64.33,74.576l-107.58-.179a12.575,12.575,0,0,0,0,25.149l77.57-.1L1444.81,825.8c3.33,5.477,8.85,8.163,14.12,7.5A13.777,13.777,0,0,0,1471,817.193M1270.86,1077.85h-59.3a9.235,9.235,0,1,0,0,18.47h59.3a9.236,9.236,0,1,0,0-18.47m-17.35-123.7,0.05-.016a10.041,10.041,0,0,0-9.14-5.8h-6.35a10.176,10.176,0,0,0-9.08,5.8l0.04,0.016c-1.49,3.043-11.53,24.9-89.22,194.1a10.692,10.692,0,0,0,.33,10.49,10.308,10.308,0,0,0,8.64,4.74,10.043,10.043,0,0,0,9.05-5.9c0.68-1.53,71.08-155.97,83.45-183.094,12.38,27.144,82.86,181.754,83.5,183.184a10.009,10.009,0,0,0,9.01,5.81,10.29,10.29,0,0,0,8.63-4.74,10.708,10.708,0,0,0,.34-10.47c-77.7-169.219-87.74-191.072-89.25-194.115m669.25,88.765a9.275,9.275,0,0,0,0,18.55h57.49a9.275,9.275,0,0,0,0-18.55h-57.49Zm110.88,102.18H1898.36V966.3h133.61a9.13,9.13,0,0,0,9.18-9.058,9.312,9.312,0,0,0-9.32-9.059H1888.94a10.488,10.488,0,0,0-10.43,10.279l0.04,194.132a10.69,10.69,0,0,0,3.05,7.74,9.858,9.858,0,0,0,7.06,2.93h145.2a9.1,9.1,0,0,0,9.08-9.11,9.307,9.307,0,0,0-9.3-9.06M538.94,943.532c-34.868,0-64.349,12.053-85.233,34.874-18.72,20.437-29.03,47.914-29.03,77.364s10.31,56.93,29.03,77.35c20.884,22.83,50.365,34.88,85.233,34.88s64.361-12.05,85.241-34.88c18.724-20.42,29.026-47.91,29.026-77.35s-10.3-56.927-29.026-77.364c-20.88-22.821-50.361-34.874-85.241-34.874m94.225,112.238c0,54.83-39.629,94.63-94.225,94.63s-94.213-39.8-94.213-94.63,39.629-94.626,94.213-94.626,94.225,39.8,94.225,94.626m-295.2,10.9c31.389-2.5,50-24.36,50-59.12,0-51.574-34.371-59.273-54.861-59.273H239.7a10.5,10.5,0,0,0-10.416,10.312l-0.073,194.851a9.653,9.653,0,0,0,9.521,9.98H239.4a9.649,9.649,0,0,0,9.6-9.69l-0.077-187.344h82.641c24.3,0,36.63,13.852,36.63,41.164,0,26.47-12.475,41.05-35.112,41.05l-62.1-.12a9.285,9.285,0,0,0,0,18.57l43.657-.06L371.5,1158.2a10.55,10.55,0,0,0,8.95,5.36,8.079,8.079,0,0,0,1.193-.08,9.975,9.975,0,0,0,8.7-11.62v-0.01a14.776,14.776,0,0,0-1.844-4.52Zm715.6,0c31.39-2.5,49.99-24.36,49.99-59.12,0-51.574-34.37-59.273-54.86-59.273h-93.4a10.5,10.5,0,0,0-10.416,10.312L944.8,1153.44a9.652,9.652,0,0,0,9.52,9.98h0.668a9.649,9.649,0,0,0,9.6-9.69l-0.078-187.344h82.644c24.3,0,36.63,13.852,36.63,41.164,0,26.47-12.48,41.05-35.11,41.05l-62.108-.12a9.285,9.285,0,0,0,0,18.57l43.658-.06,56.87,91.21a10.541,10.541,0,0,0,8.95,5.36,8.021,8.021,0,0,0,1.19-.08,10.05,10.05,0,0,0,6.85-3.92,10.176,10.176,0,0,0,1.85-7.7v-0.01a14.763,14.763,0,0,0-1.85-4.52ZM124.809,948.277H31.41a10.338,10.338,0,0,0-10.416,10.23L20.921,1153.35a9.662,9.662,0,0,0,9.525,9.99h0.663a9.655,9.655,0,0,0,9.6-9.69L40.633,966.386h82.65c24.3,0,36.621,13.827,36.621,41.094,0,26.37-12.474,40.9-35.111,40.9l-62.1.03a9.27,9.27,0,0,0,0,18.54l60.838-.07c35.153,0,56.143-22.21,56.143-59.4,0-22.123-7.124-59.2-54.861-59.2M1816.22,948.2h-6.33a8.675,8.675,0,0,0-6.9,3.272l-74.97,90.673-74.66-90.705a8.635,8.635,0,0,0-6.98-3.24h-6.48c-5.81,0-9.46,3.435-9.46,8.977V1153.31a9.93,9.93,0,0,0,9.63,9.96h0.61a9.748,9.748,0,0,0,9.67-9.79V978.39l69.52,84.38a8.422,8.422,0,0,0,6.97,3.23h2.3a8.618,8.618,0,0,0,7-3.27l69.63-84.348v175.1a9.742,9.742,0,0,0,9.67,9.79h0.61a9.935,9.935,0,0,0,9.62-9.96V957.172c0-5.542-3.65-8.977-9.45-8.977m-249.28,0h-6.33a8.658,8.658,0,0,0-6.89,3.272l-74.98,90.673-74.66-90.705a8.63,8.63,0,0,0-6.97-3.24h-6.5c-5.8,0-9.45,3.435-9.45,8.977V1153.31a9.923,9.923,0,0,0,9.63,9.96h0.61a9.74,9.74,0,0,0,9.66-9.79V978.39l69.53,84.38a8.409,8.409,0,0,0,6.97,3.23h2.29a8.6,8.6,0,0,0,7-3.27l69.64-84.348v175.1a9.742,9.742,0,0,0,9.67,9.79h0.6a9.937,9.937,0,0,0,9.63-9.96V957.172c0-5.542-3.65-8.977-9.45-8.977M896.819,1061.72H795.938a9.235,9.235,0,1,0,0,18.47H886.13c-7.091,42.39-40.572,69.62-85.924,69.62-65.163,0-94.335-47.24-94.335-94.04,0-54.51,39.681-94.072,94.335-94.072,38.786,0,67.868,17.254,79.789,47.362,1.8,4.54,5.224,7.03,9.659,7.03h3.707a6.556,6.556,0,0,0,5.276-2.6,7.512,7.512,0,0,0,1.05-6.69c-4.333-14.834-24.314-63.252-99.481-63.252-75,0-114.239,56.462-114.239,112.222,0,67.1,45.91,112.17,114.239,112.17,59.226,0,104.929-41.47,106.312-96.47a9.461,9.461,0,0,0-2.506-7.03,9.74,9.74,0,0,0-7.193-2.72M119.609,232.452a12.506,12.506,0,1,0,0,25.011H226.43a12.507,12.507,0,1,0,0-25.011H119.609ZM173.131,41.459S320.684,365.107,320.9,365.669a13.881,13.881,0,0,0,12.474,8.13c9.525,0,17.89-9.775,12.365-21.413,0,0-154.326-336.084-154.493-336.271A14.022,14.022,0,0,0,178.579,8.09h-10.9a14.021,14.021,0,0,0-12.666,8.025C154.847,16.3.521,352.386,0.521,352.386-5,364.024,3.365,373.8,12.89,373.8a13.869,13.869,0,0,0,12.47-8.13c0.22-.562,147.771-324.21,147.771-324.21M1174.91,232.452a12.506,12.506,0,1,0,0,25.011h106.82a12.506,12.506,0,1,0,0-25.011H1174.91Zm53.52-190.993s147.55,323.648,147.77,324.21a13.876,13.876,0,0,0,12.47,8.13c9.53,0,17.89-9.775,12.37-21.413,0,0-154.33-336.084-154.5-336.271a14,14,0,0,0-12.66-8.025h-10.9a14,14,0,0,0-12.66,8.025c-0.17.187-154.5,336.271-154.5,336.271-5.52,11.638,2.84,21.413,12.37,21.413a13.865,13.865,0,0,0,12.47-8.13c0.22-.562,147.77-324.21,147.77-324.21M914.07,340.43S766.518,16.783,766.3,16.212A13.884,13.884,0,0,0,753.828,8.09c-9.525,0-17.89,9.775-12.365,21.405,0,0,154.326,336.084,154.493,336.279a14.039,14.039,0,0,0,12.666,8.025h10.9a14.038,14.038,0,0,0,12.666-8.025c0.167-.195,154.5-336.279,154.5-336.279,5.52-11.63-2.84-21.405-12.37-21.405a13.87,13.87,0,0,0-12.47,8.122c-0.22.57-147.77,324.218-147.77,324.218M2128.9,1015.64h-5.11V952.9h-20v-4.573h45.25V952.9H2128.9v62.741Zm84.73-55.521-20.44,46.081h-5.09l-20.82-46.081v55.521h-5.09V948.326h5.09l23.48,51.934,22.87-51.934h5.08v67.314h-5.08V960.119Z"/></svg>